<?xml version="1.0" encoding="UTF-8" standalone="no"?>
<svg
   xmlns:dc="http://purl.org/dc/elements/1.1/"
   xmlns:cc="http://creativecommons.org/ns#"
   xmlns:rdf="http://www.w3.org/1999/02/22-rdf-syntax-ns#"
   xmlns:svg="http://www.w3.org/2000/svg"
   xmlns="http://www.w3.org/2000/svg"
   viewBox="0 0 541.54669 118.44"
   height="118.44"
   width="541.54669"
   xml:space="preserve"
   id="svg2"
   version="1.1"><metadata
     id="metadata8"><rdf:RDF><cc:Work
         rdf:about=""><dc:format>image/svg+xml</dc:format><dc:type
           rdf:resource="http://purl.org/dc/dcmitype/StillImage" /></cc:Work></rdf:RDF></metadata><defs
     id="defs6"><clipPath
       id="clipPath20"
       clipPathUnits="userSpaceOnUse"><path
         id="path18"
         d="m 2467.89,86.4336 c -11.5,3.2422 -24.06,3.5664 -47.26,4.6211 -54.73,2.5312 -139.09,3.7187 -196.2,3.2695 -58.34,-0.4765 -116.01,-2.664 -168.06,-6.8359 -58.98,-4.7266 -185.16,-12.2656 -246.92,-16.4141 -130.46,-8.7031 -174.41,-7.2734 -306.93,-0.4687 46.41,-17.1289 93.14,-34.3555 128.93,-52.0899 7.65,-3.8281 14.9,-7.6562 20.95,-11.53513 5.7,-3.64063 56.84,-3.90625 78.98,-4.48047 63.83,-1.691406 102.19,-1.90625 166.22,-0.32422 59.82,1.47656 118.05,4.58985 169.82,9.53512 51.12,4.8789 112.11,11.1016 164.2,15.8555 111.11,10.1563 247.36,10.8711 368.05,4.6406 -25.86,14.9883 -56.41,29.9024 -98.65,43.9649 -10.34,3.4844 -21.25,6.914 -33.13,10.2617 z" /></clipPath><linearGradient
       id="linearGradient26"
       spreadMethod="pad"
       gradientTransform="matrix(1097.15,0,0,-1097.15,1502.52,47.763)"
       gradientUnits="userSpaceOnUse"
       y2="0"
       x2="1"
       y1="0"
       x1="0"><stop
         id="stop22"
         offset="0"
         style="stop-opacity:1;stop-color:#f03d42" /><stop
         id="stop24"
         offset="1"
         style="stop-opacity:1;stop-color:#8c2228" /></linearGradient></defs><g
     transform="matrix(1.3333333,0,0,-1.3333333,0,118.44)"
     id="g10"><g
       transform="scale(0.1)"
       id="g12"><g
         id="g14"><g
           clip-path="url(#clipPath20)"
           id="g16"><path
             id="path28"
             style="fill:url(#linearGradient26);fill-opacity:1;fill-rule:nonzero;stroke:none"
             d="m 2467.89,86.4336 c -11.5,3.2422 -24.06,3.5664 -47.26,4.6211 -54.73,2.5312 -139.09,3.7187 -196.2,3.2695 -58.34,-0.4765 -116.01,-2.664 -168.06,-6.8359 -58.98,-4.7266 -185.16,-12.2656 -246.92,-16.4141 -130.46,-8.7031 -174.41,-7.2734 -306.93,-0.4687 46.41,-17.1289 93.14,-34.3555 128.93,-52.0899 7.65,-3.8281 14.9,-7.6562 20.95,-11.53513 5.7,-3.64063 56.84,-3.90625 78.98,-4.48047 63.83,-1.691406 102.19,-1.90625 166.22,-0.32422 59.82,1.47656 118.05,4.58985 169.82,9.53512 51.12,4.8789 112.11,11.1016 164.2,15.8555 111.11,10.1563 247.36,10.8711 368.05,4.6406 -25.86,14.9883 -56.41,29.9024 -98.65,43.9649 -10.34,3.4844 -21.25,6.914 -33.13,10.2617" /></g></g><path
         id="path30"
         style="fill:#110f0e;fill-opacity:1;fill-rule:nonzero;stroke:none"
         d="m 363.984,387.82 c 0,-105.761 -73.593,-158.632 -220.8,-158.632 -53.7309,0 -101.4652,6.132 -143.184,18.417 l 15.0117,67.317 c 48.0078,-16.602 93.6013,-24.863 136.7463,-24.863 97.187,0 145.769,27.41 145.769,82.293 0,27.726 -12.566,51.449 -37.722,71.183 -16.856,13.153 -50.02,30.731 -99.461,52.723 C 108.32,519.402 71.8867,540.715 51.0273,560.145 22.1484,587.012 7.71484,620.73 7.71484,661.328 c 0,42.305 14.72656,76.738 44.16016,103.32 32.8711,29.727 79.316,44.59 139.336,44.59 68.027,0 114.617,-4.433 139.766,-13.281 l -10.293,-68.184 c -43.438,13.731 -89.61,20.586 -138.465,20.586 -73.469,0 -110.1877,-24.582 -110.1877,-73.742 0,-23.719 10.5664,-43.57 31.7187,-59.59 13.73,-10.019 44.023,-25.152 90.898,-45.429 53.438,-23.153 92.032,-45.172 115.743,-66.035 35.722,-31.465 53.593,-70.016 53.593,-115.743" /><path
         id="path32"
         style="fill:#110f0e;fill-opacity:1;fill-rule:nonzero;stroke:none"
         d="m 827.012,306.34 -2.571,-63 h -337.41 c 3.438,70.578 5.137,168.308 5.137,293.211 0,107.492 -1.699,195.812 -5.137,264.972 h 79.746 c -3.425,-57.734 -5.156,-146.046 -5.156,-264.972 0,-97.723 -1.562,-176.043 -4.707,-234.918 85.742,0 175.781,1.582 270.098,4.707" /><path
         id="path34"
         style="fill:#110f0e;fill-opacity:1;fill-rule:nonzero;stroke:none"
         d="m 1218.57,645.461 c 0,68.035 -46.01,102.039 -138.04,102.039 -32.87,0 -60.45,-1.855 -82.749,-5.566 2.004,-49.739 2.999,-117.336 2.999,-202.801 17.15,-0.578 33.58,-0.84 49.32,-0.84 112.31,0 168.47,35.719 168.47,107.168 z m 131.2,-402.121 h -82.76 c -27.43,82.019 -47.44,136.316 -60.01,162.89 -16,33.465 -34.16,55.028 -54.44,64.735 -16.02,7.715 -44.74,11.586 -86.18,11.586 -24.29,0 -45.87,-0.293 -64.74,-0.871 0,-92.317 1.72,-171.758 5.16,-238.34 h -79.757 c 4.285,88.601 6.434,186.336 6.434,293.211 0,100.625 -2.149,188.937 -6.434,264.972 H 987.5 c 12.86,0 29.14,0.43 48.87,1.29 19.72,0.847 42.3,1.289 67.73,1.289 125.2,0 187.79,-43.164 187.79,-129.485 0,-71.734 -35.15,-122.168 -105.46,-151.324 v -4.309 c 31.44,-9.425 56.87,-31.308 76.3,-65.586 16.29,-28.593 45.3,-98.625 87.04,-210.058" /><path
         id="path36"
         style="fill:#110f0e;fill-opacity:1;fill-rule:nonzero;stroke:none"
         d="m 2365.88,244.813 h -89.02 c 0,70.39 -4.89,172.207 -14.67,305.421 -9.79,133.204 -15,213.067 -15.63,239.59 h -4.74 C 2210.25,687.227 2170.23,575.859 2121.78,455.742 2073.32,335.625 2049.1,265.332 2049.1,244.813 h -63.92 c 0,22.089 -22.58,93.652 -67.72,214.718 -45.16,121.063 -73.71,202.117 -85.72,243.164 -11.99,41.035 -20.2,70.078 -24.61,87.129 h -4.75 c -0.93,-43.242 -7.17,-130.539 -18.69,-261.847 -11.52,-131.329 -17.28,-225.711 -17.28,-283.164 h -81.45 c 0,3.156 10.72,90.023 32.19,260.648 21.47,170.641 32.21,289.254 32.21,355.867 h 124.53 c 0,-34.726 25.25,-121.543 75.76,-260.422 50.51,-138.902 75.76,-223.035 75.76,-252.39 h 4.75 c 0,29.355 28.41,113.699 85.23,253.074 56.82,139.387 85.24,225.957 85.24,259.738 h 121.69 c 0,-66.613 7.25,-184.68 21.78,-354.191 14.51,-169.508 21.78,-256.953 21.78,-262.324" /><path
         id="path38"
         style="fill:#110f0e;fill-opacity:1;fill-rule:nonzero;stroke:none"
         d="m 2778.79,336.672 c -1.58,47.984 -2.36,91.07 -2.36,129.273 -59.36,0 -104.5,-4.414 -135.43,-13.261 -51.78,-15.782 -77.66,-45.926 -77.66,-90.438 0,-42.941 30.31,-64.406 90.92,-64.406 52.09,0 93.59,12.953 124.53,38.832 z m 83.81,-91.859 -74.34,-2.84 c -3.79,15.468 -5.68,30.144 -5.68,44.035 h -4.73 c -38.83,-35.356 -91.72,-53.031 -158.63,-53.031 -36.31,0 -67.56,10.625 -93.77,31.933 -26.19,21.309 -39.3,51.723 -39.3,91.176 0,48.621 20.53,87.652 61.56,117.176 41.04,29.519 117.27,45.086 228.72,46.668 0.93,7.578 1.42,16.25 1.42,26.035 0,38.832 -10.35,64.726 -31.01,77.668 -20.69,12.937 -52.02,19.414 -94.01,19.414 -49.55,0 -98.34,-6.164 -146.31,-18.469 l 8.05,65.332 c 47.34,13.574 101.8,20.363 163.36,20.363 56.19,0 99.59,-11.601 130.21,-34.804 30.63,-23.203 45.94,-62.727 45.94,-118.606 0,-14.843 -0.7,-41.773 -2.13,-80.761 -1.42,-38.985 -2.13,-64.922 -2.13,-77.872 0,-57.449 4.26,-108.593 12.78,-153.417" /><path
         id="path40"
         style="fill:#110f0e;fill-opacity:1;fill-rule:nonzero;stroke:none"
         d="m 3611.72,836.699 c 0,-16.094 -5.22,-30.058 -15.63,-41.906 -10.41,-11.832 -25.09,-17.75 -44.04,-17.75 -16.09,0 -28.65,5.125 -37.64,15.379 -9,10.262 -13.49,22.656 -13.49,37.176 0,15.793 5.37,29.523 16.09,41.203 10.74,11.679 25.57,17.519 44.51,17.519 15.47,0 27.7,-5.136 36.7,-15.39 9.01,-10.266 13.5,-22.344 13.5,-36.231 z m -19.88,-591.886 h -85.73 c 4.44,63.136 6.64,135.277 6.64,216.398 0,91.238 -5.52,167.781 -16.58,229.648 l 94.71,12.782 c -3.79,-65.957 -5.68,-146.778 -5.68,-242.43 0,-75.762 2.2,-147.902 6.64,-216.398" /><path
         id="path42"
         style="fill:#110f0e;fill-opacity:1;fill-rule:nonzero;stroke:none"
         d="m 4061.56,317.258 -4.72,-63.449 c -25.59,-14.524 -59.83,-21.789 -102.76,-21.789 -81.78,0 -144.28,22.578 -187.52,67.714 -43.24,45.149 -64.88,99.61 -64.88,163.371 0,67.559 22.73,125.645 68.2,174.258 45.45,48.602 105.59,72.91 180.41,72.91 37.56,0 68.19,-3.789 91.86,-11.367 l -12.79,-74.328 c -33.15,12.305 -66.76,18.469 -100.86,18.469 -44.83,0 -80.49,-15.637 -107.02,-46.887 -26.5,-31.25 -39.76,-70.39 -39.76,-117.43 0,-51.14 15.78,-93.761 47.34,-127.843 31.57,-34.102 76.23,-51.153 134.01,-51.153 23.67,0 56.5,5.84 98.49,17.524" /><path
         id="path44"
         style="fill:#110f0e;fill-opacity:1;fill-rule:nonzero;stroke:none"
         d="m 3277.4,552.129 c 0,34.726 -10.95,61.297 -32.91,79.754 -21.93,18.488 -49.78,27.715 -83.57,27.715 -31.88,0 -58.56,-8.907 -80.02,-26.758 -21.47,-17.84 -32.21,-43.145 -32.21,-75.977 0,-34.414 10.98,-60.605 32.91,-78.601 21.95,-18 50.12,-26.992 84.53,-26.992 31.57,0 58.01,8.73 79.32,26.257 21.31,17.524 31.95,42.403 31.95,74.602 z m 65.82,-387.344 c 0,29.68 -10.8,50.567 -32.42,62.723 -21.62,12.148 -62.26,18.254 -121.93,18.254 -40.41,0 -77.35,1.894 -110.8,5.672 -38.52,-18.614 -57.78,-45.918 -57.78,-81.914 0,-77.0317 50.51,-115.5356 151.53,-115.5356 52.71,0 94.47,10.2617 125.25,30.7734 30.76,20.5232 46.15,47.2072 46.15,80.0272 z m 84.77,589.531 -7.58,-65.351 c -58.71,0 -91.07,-9.473 -97.07,-28.41 v -4.746 c 20.21,-24.61 30.31,-52.696 30.31,-84.266 0,-49.246 -16.19,-89.91 -48.53,-121.965 -32.37,-32.027 -82.33,-48.027 -149.89,-48.027 -29.98,0 -53.8,3.156 -71.48,9.472 -15.47,-11.054 -23.2,-24.785 -23.2,-41.199 0,-20.207 9.14,-33.625 27.46,-40.246 23.36,-8.848 72.13,-13.262 146.31,-13.262 119.96,0 179.94,-39.785 179.94,-119.336 0,-56.812 -23.36,-103.8472 -70.08,-141.1011 C 3297.46,18.6211 3237.01,0 3162.81,0 c -76.07,0 -130.29,13.7891 -162.65,41.4063 -32.35,27.625 -48.54,60.8787 -48.54,99.7067 0,35.36 7.97,63.758 23.93,85.235 15.93,21.465 35.74,34.715 59.41,39.773 v 4.262 c -24.94,11.988 -37.4,35.039 -37.4,69.137 0,30.941 15.78,58.085 47.34,81.445 v 3.793 c -16.72,8.203 -32.65,22.086 -47.81,41.66 -15.16,19.578 -22.73,43.883 -22.73,72.926 0,50.199 16.58,91.078 49.72,122.629 33.15,31.574 81.13,47.351 143.95,47.351 51.46,0 91.85,-9.316 121.23,-27.937 h 5.19 c 10.1,53.347 36.62,80.019 79.55,80.019 23.36,0 41.37,-2.363 53.99,-7.09" /></g></g></svg>